Coordinates
version=1
nRows=12
nColumns=46
inDegrees=yes

Units are S.I. units (second, meters, Newtons, ...)
Angles are in degrees.

endheader
time	pelvis_tilt	pelvis_list	pelvis_rotation	pelvis_tx	pelvis_ty	pelvis_tz	bb_angle	bb_tx	bb_ty	bb_tz	hip_flexion_r	hip_adduction_r	hip_rotation_r	knee_angle_r	knee_angle_r_beta	ankle_angle_r	subtalar_angle_r	mtp_angle_r	crank_angle_r	hip_flexion_l	hip_adduction_l	hip_rotation_l	knee_angle_l	knee_angle_l_beta	ankle_angle_l	subtalar_angle_l	mtp_angle_l	crank_angle_l	lumbar_extension	lumbar_bending	lumbar_rotation	arm_flex_r	arm_add_r	arm_rot_r	elbow_flex_r	pro_sup_r	wrist_flex_r	wrist_dev_r	arm_flex_l	arm_add_l	arm_rot_l	elbow_flex_l	pro_sup_l	wrist_flex_l	wrist_dev_l
      2.50500000	    -16.62540057	      7.58493535	      6.74381757	      0.35086006	      1.23964331	     -0.21942323	      0.00000000	      0.50000000	      0.00000000	      0.25000000	     23.69863453	    -15.48927669	    -14.67079525	     25.80407676	      0.45036610	    -31.79526903	      1.23716272	      0.00000000	      0.00000000	     72.31048761	     -8.04083340	     -5.91981289	    100.82141597	      1.75966567	      6.51577753	     14.18914649	      0.00000000	      0.00000000	    -55.80123994	     -6.52275268	     -4.65963136	     70.09799099	    -10.13115192	     35.83446432	     22.71584875	     36.64711532	      0.00000000	      0.00000000	     80.30901184	      1.77694695	     62.74486528	     15.02606857	     38.14376404	      0.00000000	      0.00000000
      2.51000000	    -16.88187610	      7.50084704	      7.01217872	      0.34998041	      1.24203468	     -0.21918356	      0.00000000	      0.50000000	      0.00000000	      0.25000000	     23.96638443	    -15.52389892	    -14.48478436	     26.64760705	      0.46508848	    -31.80520563	      0.80112012	      0.00000000	      0.00000000	     72.43272001	     -7.51590410	     -5.86661621	     99.63158172	      1.73889914	      7.18525158	     14.21156038	      0.00000000	      0.00000000	    -55.87825625	     -6.56907545	     -4.43358815	     70.23661852	    -10.58599354	     35.74906419	     22.60517367	     36.61859038	      0.00000000	      0.00000000	     80.52588874	      2.37323304	     62.36191950	     15.13984282	     38.01226417	      0.00000000	      0.00000000
      2.51500000	    -17.14795206	      7.44775586	      7.11504458	      0.34923710	      1.24421351	     -0.21873762	      0.00000000	      0.50000000	      0.00000000	      0.25000000	     24.41213675	    -15.55290837	    -14.09446309	     27.74333285	      0.48421250	    -31.48972680	      0.41161925	      0.00000000	      0.00000000	     72.45004402	     -7.17044789	     -5.93583050	     98.37020497	      1.71688396	      7.87746346	     14.28059548	      0.00000000	      0.00000000	    -55.96375835	     -6.78191283	     -4.13061217	     70.29611917	    -11.06497640	     35.61582324	     22.54236626	     36.59232875	      0.00000000	      0.00000000	     80.66349375	      3.02934613	     61.83821585	     15.19693535	     37.82934583	      0.00000000	      0.00000000
      2.52000000	    -17.52082506	      7.29708009	      7.35202371	      0.34843707	      1.24614993	     -0.21872776	      0.00000000	      0.50000000	      0.00000000	      0.25000000	     24.96186123	    -15.52681963	    -13.71912881	     28.94286227	      0.50514824	    -30.86104426	      0.00023660	      0.00000000	      0.00000000	     72.53375713	     -6.65895685	     -5.85972335	     97.00739310	      1.69309841	      8.56537128	     14.22882400	      0.00000000	      0.00000000	    -55.92974463	     -6.79658316	     -3.80162339	     70.06977336	    -11.56957115	     33.95524772	     23.29271425	     36.60954108	      0.00000000	      0.00000000	     79.95837245	      5.12123960	     52.08653182	     16.03973855	     34.37986331	      0.00000000	      0.00000000
      2.52500000	    -17.69868137	      7.10869273	      7.66350708	      0.34771074	      1.24818706	     -0.21869494	      0.00000000	      0.50000000	      0.00000000	      0.25000000	     25.32701930	    -15.48554299	    -13.44568332	     30.31824479	      0.52915319	    -29.96415081	     -0.51666690	      0.00000000	      0.00000000	     72.34395012	     -6.10410460	     -5.69936070	     95.56448808	      1.66791497	      9.32061906	     14.18286754	      0.00000000	      0.00000000	    -56.05767758	     -6.68764118	     -3.64693121	     70.19400104	    -11.83698772	     33.86840158	     23.19049153	     36.58146313	      0.00000000	      0.00000000	     80.12680246	      5.44414492	     52.08434992	     16.23094172	     34.38089867	      0.00000000	      0.00000000
      2.53000000	    -17.92751725	      7.18591122	      8.07286129	      0.34679072	      1.25033483	     -0.21842523	      0.00000000	      0.50000000	      0.00000000	      0.25000000	     25.88062990	    -15.80348352	    -13.20432092	     31.95926036	      0.55779432	    -28.97823653	     -0.84026242	      0.00000000	      0.00000000	     71.97197490	     -5.33286946	     -5.76381856	     93.83594570	      1.63774621	      9.96116747	     13.92826608	      0.00000000	      0.00000000	    -56.22815848	     -6.76711730	     -3.70398679	     70.21697968	    -12.20646913	     33.64386364	     23.13458130	     36.54767051	      0.00000000	      0.00000000	     80.35299815	      5.83210889	     51.97286798	     16.40784870	     34.32046105	      0.00000000	      0.00000000
      2.53500000	    -18.16007811	      7.03758256	      8.32523712	      0.34601732	      1.25190168	     -0.21856457	      0.00000000	      0.50000000	      0.00000000	      0.25000000	     26.57806057	    -15.90636813	    -12.99495105	     33.80547419	      0.59001683	    -27.89541315	     -1.27722967	      0.00000000	      0.00000000	     71.59339210	     -4.74425243	     -5.64169205	     92.14324036	      1.60820293	     10.67710654	     13.99772194	      0.00000000	      0.00000000	    -56.24434350	     -6.65418489	     -3.59098850	     70.27272541	    -12.42030315	     33.36426038	     23.16522406	     36.51956158	      0.00000000	      0.00000000	     80.43075847	      6.02466798	     51.77824962	     16.61377654	     34.24861479	      0.00000000	      0.00000000
      2.54000000	    -18.31517095	      6.62987337	      8.42894069	      0.34566637	      1.25308664	     -0.21918708	      0.00000000	      0.50000000	      0.00000000	      0.25000000	     27.23819050	    -15.73257804	    -12.84472227	     35.66819052	      0.62252736	    -26.87260239	     -1.89452976	      0.00000000	      0.00000000	     71.11785694	     -4.44077201	     -5.38120677	     90.49455403	      1.57942792	     11.63767585	     13.90341900	      0.00000000	      0.00000000	    -56.23211844	     -6.42064268	     -3.24520277	     70.40571951	    -12.63722599	     33.23069837	     23.16001637	     36.49954012	      0.00000000	      0.00000000	     80.45014981	      6.15180896	     51.70690564	     16.76945384	     34.24155748	      0.00000000	      0.00000000
      2.54500000	    -18.61598547	      6.45560348	      8.58317987	      0.34504593	      1.25412901	     -0.21939355	      0.00000000	      0.50000000	      0.00000000	      0.25000000	     28.20425733	    -15.84049739	    -12.58346964	     37.75318581	      0.65891740	    -25.86481323	     -2.39907374	      0.00000000	      0.00000000	     70.57630683	     -3.99007440	     -5.30173075	     88.56831218	      1.54580866	     12.50446864	     13.84173504	      0.00000000	      0.00000000	    -56.14527136	     -6.38959342	     -2.99338883	     70.35704726	    -12.95845087	     33.01840811	     23.15141530	     36.47241480	      0.00000000	      0.00000000	     80.46653069	      6.35763192	     51.57883942	     17.06964096	     34.23862781	      0.00000000	      0.00000000
      2.55000000	    -18.98986892	      6.22869947	      8.64652456	      0.34438352	      1.25476479	     -0.21945566	      0.00000000	      0.50000000	      0.00000000	      0.25000000	     29.37214249	    -15.88164650	    -12.23840139	     39.90598267	      0.69649079	    -25.01578223	     -2.74062559	      0.00000000	      0.00000000	     70.02560423	     -3.62178978	     -5.19614070	     86.52853156	      1.51020777	     13.39209874	     13.42572436	      0.00000000	      0.00000000	    -55.91843877	     -6.43214152	     -2.75393038	     70.15524913	    -13.26314329	     32.58295005	     23.46866852	     36.47604533	      0.00000000	      0.00000000	     80.30284110	      6.44212959	     51.21468585	     17.57697501	     34.20104884	      0.00000000	      0.00000000
      2.55500000	    -19.03896788	      5.79522556	      8.74778814	      0.34394765	      1.25570741	     -0.21972828	      0.00000000	      0.50000000	      0.00000000	      0.25000000	     30.09834795	    -15.70952101	    -12.19910949	     41.87031549	      0.73077486	    -24.38196926	     -3.27099235	      0.00000000	      0.00000000	     69.10977808	     -3.34055225	     -4.84679682	     84.42764458	      1.47354038	     14.30347339	     13.21537021	      0.00000000	      0.00000000	    -56.01241748	     -6.17542687	     -2.42374150	     70.22491725	    -13.43408808	     32.40723497	     23.59442475	     36.47461631	      0.00000000	      0.00000000	     80.29075337	      6.47491214	     51.07022474	     17.81761435	     34.19700219	      0.00000000	      0.00000000
      2.56000000	    -19.28613998	      5.54968808	      8.70637182	      0.34355985	      1.25609689	     -0.21993641	      0.00000000	      0.50000000	      0.00000000	      0.25000000	     31.20535318	    -15.71634069	    -11.85865447	     43.97904291	      0.76757910	    -23.76700800	     -3.44443341	      0.00000000	      0.00000000	     68.23594245	     -3.09284498	     -4.79713616	     82.19873486	      1.43463856	     15.22049162	     12.52419933	      0.00000000	      0.00000000	    -55.90209047	     -6.21720323	     -2.13199107	     69.98901949	    -13.79191270	     32.01593889	     23.91326045	     36.48809538	      0.00000000	      0.00000000	     80.09614640	      6.51899099	     50.66952404	     18.46418851	     34.19398085	      0.00000000	      0.00000000
